<?xml version="1.0" standalone="no"?>
<!DOCTYPE svg PUBLIC "-//W3C//DTD SVG 20010904//EN"
 "http://www.w3.org/TR/2001/REC-SVG-20010904/DTD/svg10.dtd">
<svg version="1.0" xmlns="http://www.w3.org/2000/svg"
 width="50" height="50" viewBox="0 0 512.000000 512.000000"
 preserveAspectRatio="xMidYMid meet">

<g transform="translate(0.000000,512.000000) scale(0.100000,-0.100000)"
fill="#000000" stroke="none">
<path d="M1740 4149 c-456 -58 -856 -329 -1089 -734 -114 -198 -147 -321 -220
-822 -92 -627 -104 -726 -105 -873 -1 -158 13 -221 76 -350 32 -67 59 -102
127 -171 159 -159 334 -231 561 -230 240 1 451 107 584 295 24 33 111 195 192
359 l149 297 545 0 545 0 149 -297 c81 -164 168 -326 192 -359 209 -294 615
-382 958 -207 74 38 108 64 182 138 74 73 99 107 132 175 92 188 98 278 43
660 -22 157 -61 438 -86 626 -56 427 -92 559 -206 759 -233 410 -633 679
-1089 735 -101 12 -1543 12 -1640 -1z m1636 -324 c244 -42 444 -147 615 -322
167 -172 258 -347 309 -595 22 -108 90 -545 146 -943 42 -296 41 -336 -16
-451 -129 -263 -522 -315 -703 -91 -19 23 -114 200 -210 393 -185 371 -209
406 -279 419 -18 3 -335 5 -705 3 -658 -3 -672 -3 -700 -23 -20 -15 -81 -125
-218 -395 -211 -416 -233 -448 -342 -502 -127 -62 -307 -49 -431 31 -109 71
-173 167 -193 288 -10 64 -6 109 75 688 47 341 95 654 106 695 28 99 96 242
160 334 65 93 216 241 310 302 131 85 274 141 425 168 122 22 1525 22 1651 1z"/>
<path d="M1682 3500 c-62 -28 -81 -76 -82 -202 l0 -98 -97 0 c-127 -1 -175
-20 -203 -82 -40 -88 -12 -184 62 -218 33 -15 66 -20 141 -20 l97 0 0 -97 c1
-127 20 -175 82 -203 88 -40 184 -12 218 62 15 33 20 66 20 141 l0 97 98 0
c126 1 174 20 202 82 40 88 12 184 -62 218 -33 15 -66 20 -140 20 l-98 0 0 98
c-1 126 -20 174 -82 202 -24 11 -59 20 -78 20 -19 0 -54 -9 -78 -20z"/>
<path d="M3282 3500 c-33 -15 -47 -29 -62 -62 -40 -88 -12 -184 62 -218 88
-40 184 -12 218 62 25 54 25 102 0 156 -22 48 -79 82 -140 82 -19 0 -54 -9
-78 -20z"/>
<path d="M2962 3180 c-33 -15 -47 -29 -62 -62 -40 -88 -12 -184 62 -218 88
-40 184 -12 218 62 25 54 25 102 0 156 -22 48 -79 82 -140 82 -19 0 -54 -9
-78 -20z"/>
<path d="M3602 3180 c-33 -15 -47 -29 -62 -62 -40 -88 -12 -184 62 -218 88
-40 184 -12 218 62 25 54 25 102 0 156 -22 48 -79 82 -140 82 -19 0 -54 -9
-78 -20z"/>
<path d="M3282 2860 c-33 -15 -47 -29 -62 -62 -40 -88 -12 -184 62 -218 88
-40 184 -12 218 62 25 54 25 102 0 156 -22 48 -79 82 -140 82 -19 0 -54 -9
-78 -20z"/>
</g>
</svg>
